<svg width="32" height="32" viewBox="0 0 32 32" fill="none" xmlns="http://www.w3.org/2000/svg">
<path d="M9.71889 6.54348C13.8984 6.18017 18.1016 6.18017 22.2811 6.54348L24.2947 6.71853C25.6352 6.83505 26.7833 7.63461 27.3782 8.77831C27.4543 8.92463 27.3972 9.10178 27.257 9.18859L18.9024 14.3605C17.1106 15.4697 14.8512 15.493 13.0369 14.4209L4.6265 9.4511C4.49062 9.37081 4.42825 9.20553 4.48949 9.06006C5.0337 7.7673 6.2572 6.8444 7.70525 6.71853L9.71889 6.54348Z" fill="#37352F"/>
<path d="M4.48264 11.6892C4.27469 11.5663 4.00935 11.6985 3.98511 11.9389C3.6468 15.293 3.72868 18.679 4.23076 22.0178C4.49544 23.7779 5.93199 25.1273 7.70525 25.2815L9.71889 25.4565C13.8984 25.8198 18.1016 25.8198 22.2811 25.4565L24.2947 25.2815C26.068 25.1273 27.5045 23.7779 27.7692 22.0178C28.2859 18.5817 28.3576 15.0957 27.9842 11.6457C27.958 11.4037 27.6882 11.2739 27.4812 11.402L19.9551 16.061C17.5309 17.5617 14.4741 17.5932 12.0195 16.1428L4.48264 11.6892Z" fill="#37352F"/>
</svg>
