<svg width="32" height="32" viewBox="0 0 32 32" fill="none" xmlns="http://www.w3.org/2000/svg">
<path d="M6.66692 13.1473C9.22212 18.7125 13.7688 23.1372 19.4215 25.5358L20.3276 25.9396C22.4007 26.8632 24.8377 26.1615 26.1022 24.2768L27.2863 22.5119C27.6713 21.938 27.5541 21.1652 27.0162 20.7313L23.0005 17.4916C22.4106 17.0157 21.5433 17.1265 21.092 17.7354L19.8497 19.4118C16.662 17.8393 14.0739 15.2512 12.5015 12.0635L14.1778 10.8212C14.7867 10.37 14.8975 9.50262 14.4217 8.91277L11.1818 4.89685C10.748 4.35914 9.97536 4.24185 9.40154 4.62661L7.62442 5.81821C5.72796 7.08982 5.03012 9.54695 5.97509 11.6255L6.66588 13.145L6.66692 13.1473Z" fill="#37352F"/>
</svg>
