<svg width="3789" height="802" viewBox="0 0 3789 802" fill="none" xmlns="http://www.w3.org/2000/svg">
<path d="M474.5 323H507C543 323 561 307.333 561 276C561 244.667 543 229 507 229H474.5V323ZM474.5 527H376.5V150H532.5C574.833 150 607.167 161 629.5 183C652.167 205 663.5 236 663.5 276C663.5 316 652.167 347 629.5 369C607.167 391 574.833 402 532.5 402H474.5V527ZM735.008 398C735.008 406.333 736.508 414.167 739.508 421.5C742.508 428.5 746.508 434.667 751.508 440C756.841 445.333 763.008 449.5 770.008 452.5C777.341 455.5 785.174 457 793.508 457C801.508 457 809.008 455.5 816.008 452.5C823.341 449.5 829.508 445.333 834.508 440C839.841 434.667 844.008 428.5 847.008 421.5C850.341 414.5 852.008 407 852.008 399C852.008 391 850.341 383.5 847.008 376.5C844.008 369.167 839.841 362.833 834.508 357.5C829.508 352.167 823.341 348 816.008 345C809.008 342 801.508 340.5 793.508 340.5C785.174 340.5 777.341 342 770.008 345C763.008 348 756.841 352.167 751.508 357.5C746.508 362.833 742.508 369 739.508 376C736.508 382.667 735.008 390 735.008 398ZM849.008 270.5H940.008V527H849.008V498.5C829.674 522.833 803.508 535 770.508 535C751.841 535 734.674 531.667 719.008 525C703.341 518 689.674 508.333 678.008 496C666.341 483.667 657.174 469.167 650.508 452.5C644.174 435.833 641.008 417.667 641.008 398C641.008 379.667 644.174 362.333 650.508 346C656.841 329.333 665.674 314.833 677.008 302.5C688.341 290.167 701.841 280.5 717.508 273.5C733.174 266.167 750.508 262.5 769.508 262.5C801.508 262.5 828.008 273.667 849.008 296V270.5ZM1042.09 270.5V415C1042.09 446.667 1057.43 462.5 1088.09 462.5C1118.76 462.5 1134.09 446.667 1134.09 415V270.5H1224.59V432.5C1224.59 467.167 1213.09 493.167 1190.09 510.5C1167.43 527.833 1133.43 536.5 1088.09 536.5C1042.76 536.5 1008.59 527.833 985.594 510.5C962.927 493.167 951.594 467.167 951.594 432.5V270.5H1042.09ZM1326.57 112V527H1236.07V112H1326.57ZM1682.83 233H1564.83V296H1672.33V379H1564.83V527H1466.83V150H1682.83V233ZM1661.64 479C1661.64 471 1663.14 463.5 1666.14 456.5C1669.14 449.167 1673.31 442.833 1678.64 437.5C1683.98 432.167 1690.14 428 1697.14 425C1704.48 422 1712.14 420.5 1720.14 420.5C1728.14 420.5 1735.64 422 1742.64 425C1749.98 428 1756.31 432.167 1761.64 437.5C1766.98 442.833 1771.14 449.167 1774.14 456.5C1777.14 463.5 1778.64 471 1778.64 479C1778.64 487 1777.14 494.667 1774.14 502C1771.14 509 1766.98 515.167 1761.64 520.5C1756.31 525.833 1749.98 530 1742.64 533C1735.64 536 1728.14 537.5 1720.14 537.5C1712.14 537.5 1704.48 536 1697.14 533C1690.14 530 1683.98 525.833 1678.64 520.5C1673.31 515.167 1669.14 509 1666.14 502C1663.14 494.667 1661.64 487 1661.64 479ZM2012.49 444H2034.99C2051.99 444 2067.15 441.333 2080.49 436C2093.82 430.667 2104.99 423.333 2113.99 414C2123.32 404.667 2130.32 393.667 2134.99 381C2139.99 368 2142.49 353.833 2142.49 338.5C2142.49 323.5 2139.99 309.5 2134.99 296.5C2129.99 283.5 2122.82 272.333 2113.49 263C2104.49 253.667 2093.32 246.333 2079.99 241C2066.65 235.667 2051.65 233 2034.99 233H2012.49V444ZM1914.49 150H2059.49C2085.15 150 2109.15 155.167 2131.49 165.5C2154.15 175.833 2173.82 189.667 2190.49 207C2207.49 224 2220.82 244 2230.49 267C2240.15 289.667 2244.99 313.5 2244.99 338.5C2244.99 363.167 2240.15 387 2230.49 410C2221.15 432.667 2207.99 452.667 2190.99 470C2174.32 487.333 2154.65 501.167 2131.99 511.5C2109.65 521.833 2085.49 527 2059.49 527H1914.49V150ZM2333.05 398C2333.05 406.333 2334.55 414.167 2337.55 421.5C2340.55 428.5 2344.55 434.667 2349.55 440C2354.89 445.333 2361.05 449.5 2368.05 452.5C2375.39 455.5 2383.22 457 2391.55 457C2399.55 457 2407.05 455.5 2414.05 452.5C2421.39 449.5 2427.55 445.333 2432.55 440C2437.89 434.667 2442.05 428.5 2445.05 421.5C2448.39 414.5 2450.05 407 2450.05 399C2450.05 391 2448.39 383.5 2445.05 376.5C2442.05 369.167 2437.89 362.833 2432.55 357.5C2427.55 352.167 2421.39 348 2414.05 345C2407.05 342 2399.55 340.5 2391.55 340.5C2383.22 340.5 2375.39 342 2368.05 345C2361.05 348 2354.89 352.167 2349.55 357.5C2344.55 362.833 2340.55 369 2337.55 376C2334.55 382.667 2333.05 390 2333.05 398ZM2447.05 270.5H2538.05V527H2447.05V498.5C2427.72 522.833 2401.55 535 2368.55 535C2349.89 535 2332.72 531.667 2317.05 525C2301.39 518 2287.72 508.333 2276.05 496C2264.39 483.667 2255.22 469.167 2248.55 452.5C2242.22 435.833 2239.05 417.667 2239.05 398C2239.05 379.667 2242.22 362.333 2248.55 346C2254.89 329.333 2263.72 314.833 2275.05 302.5C2286.39 290.167 2299.89 280.5 2315.55 273.5C2331.22 266.167 2348.55 262.5 2367.55 262.5C2399.55 262.5 2426.05 273.667 2447.05 296V270.5ZM2625.52 270.5L2686.52 402L2748.52 270.5H2849.52L2716.02 527H2655.52L2523.52 270.5H2625.52ZM2921.2 270.5V527H2830.7V270.5H2921.2ZM2824.7 172C2824.7 165 2826.03 158.5 2828.7 152.5C2831.36 146.167 2835.03 140.667 2839.7 136C2844.36 131.333 2849.7 127.667 2855.7 125C2862.03 122.333 2868.7 121 2875.7 121C2882.7 121 2889.2 122.333 2895.2 125C2901.53 127.667 2907.03 131.333 2911.7 136C2916.36 140.667 2920.03 146.167 2922.7 152.5C2925.36 158.5 2926.7 165 2926.7 172C2926.7 179 2925.36 185.667 2922.7 192C2920.03 198 2916.36 203.333 2911.7 208C2907.03 212.667 2901.53 216.333 2895.2 219C2889.2 221.667 2882.7 223 2875.7 223C2868.7 223 2862.03 221.667 2855.7 219C2849.7 216.333 2844.36 212.667 2839.7 208C2835.03 203.333 2831.36 198 2828.7 192C2826.03 185.667 2824.7 179 2824.7 172ZM3103.04 336.5C3086.37 327.833 3070.04 323.5 3054.04 323.5C3045.71 323.5 3038.87 325.167 3033.54 328.5C3028.54 331.833 3026.04 336.333 3026.04 342C3026.04 345 3026.37 347.5 3027.04 349.5C3028.04 351.167 3029.87 352.833 3032.54 354.5C3035.54 356.167 3039.71 357.667 3045.04 359C3050.71 360.333 3058.04 362 3067.04 364C3092.04 369 3110.71 378 3123.04 391C3135.37 403.667 3141.54 420 3141.54 440C3141.54 455 3138.54 468.5 3132.54 480.5C3126.54 492.5 3118.21 502.667 3107.54 511C3096.87 519 3084.04 525.167 3069.04 529.5C3054.04 534.167 3037.54 536.5 3019.54 536.5C2984.87 536.5 2950.71 526.667 2917.04 507L2950.04 443C2975.37 460.333 2999.37 469 3022.04 469C3030.37 469 3037.21 467.167 3042.54 463.5C3047.87 459.833 3050.54 455.167 3050.54 449.5C3050.54 446.167 3050.04 443.5 3049.04 441.5C3048.37 439.167 3046.71 437.167 3044.04 435.5C3041.37 433.5 3037.37 431.833 3032.04 430.5C3027.04 428.833 3020.37 427.167 3012.04 425.5C2984.04 419.833 2964.37 411.5 2953.04 400.5C2942.04 389.167 2936.54 373.667 2936.54 354C2936.54 339.667 2939.21 326.833 2944.54 315.5C2949.87 303.833 2957.54 294 2967.54 286C2977.54 278 2989.54 271.833 3003.54 267.5C3017.87 263.167 3033.71 261 3051.04 261C3079.37 261 3106.87 266.5 3133.54 277.5L3103.04 336.5Z" fill="#37352F"/>
<path d="M167.5 519.649H100L36.5 519.649C25 519.649 8.30301 510.468 9.02063 479.5C9.73825 448.532 8.31964 410.721 8.02063 394.5" stroke="url(#paint0_linear_21_10)" stroke-width="15"/>
<path d="M29.9999 171H97.4999L161 171C172.5 171 189.197 180.181 188.479 211.149C187.762 242.117 188.18 279.279 188.479 295.5" stroke="url(#paint1_linear_21_10)" stroke-width="15"/>
<path d="M195.368 369V255L139.368 255C138.035 283 142.034 375.035 139.368 369C120.368 326 87 349.5 76 369C47.5 425 71.3681 474 103.368 499C136.869 525.174 195.368 547 195.368 499L195.368 369Z" fill="url(#paint2_linear_21_10)"/>
<path d="M1 321.393V435.393L57 435.393C58.3333 407.393 54.3337 315.359 57 321.393C76 364.393 109.368 340.894 120.368 321.393C148.868 265.394 125 216.394 93 191.393C59.4988 165.22 1 143.393 1 191.393V321.393Z" fill="url(#paint3_linear_21_10)"/>
<defs>
<linearGradient id="paint0_linear_21_10" x1="8.00251" y1="454.549" x2="120" y2="457" gradientUnits="userSpaceOnUse">
<stop stop-color="#F57D35"/>
<stop offset="1" stop-color="#FEC831"/>
</linearGradient>
<linearGradient id="paint1_linear_21_10" x1="189.497" y1="236.1" x2="77.5" y2="233.649" gradientUnits="userSpaceOnUse">
<stop stop-color="#F57D35"/>
<stop offset="1" stop-color="#FEC831"/>
</linearGradient>
<linearGradient id="paint2_linear_21_10" x1="145.393" y1="523.364" x2="145.393" y2="255" gradientUnits="userSpaceOnUse">
<stop stop-color="#FEC831"/>
<stop offset="1" stop-color="#F57D35"/>
</linearGradient>
<linearGradient id="paint3_linear_21_10" x1="50.9755" y1="167.029" x2="50.9755" y2="435.393" gradientUnits="userSpaceOnUse">
<stop stop-color="#FEC831"/>
<stop offset="1" stop-color="#F57D35"/>
</linearGradient>
</defs>
</svg>
