<svg width="32" height="32" viewBox="0 0 32 32" fill="none" xmlns="http://www.w3.org/2000/svg">
<path d="M2 18.4446V27.8428C2 29.5865 3.4135 31 5.15715 31C6.84242 31 8.20847 29.6771 8.19196 27.9919C8.15134 23.8455 7.94105 17.932 8.16755 18.4446C9.54177 21.5547 11.5335 21.4349 13.1757 20.4246C14.835 19.4038 15.7726 17.5387 16.1697 15.6314C17.2801 10.2967 15.1505 6.485 12.1324 4.12708C8.44276 1.2445 2 -1.15937 2 4.12707V18.4446Z" fill="url(#paint0_linear_2_2)"/>
<path d="M30.4683 13.5554V4.15717C30.4683 2.41352 29.0548 1.00001 27.3111 1.00001C25.6258 1 24.2598 2.32294 24.2763 4.00813C24.3169 8.15449 24.5272 14.068 24.3007 13.5554C22.9265 10.4453 20.9348 10.5651 19.2926 11.5754C17.6333 12.5962 16.6956 14.4613 16.2986 16.3686C15.1881 21.7033 17.3178 25.515 20.3359 27.8729C24.0255 30.7555 30.4683 33.1594 30.4683 27.8729L30.4683 13.5554Z" fill="url(#paint1_linear_2_2)"/>
<rect x="1.5" y="1.5" width="29" height="29" rx="3.5" stroke="#FEC831" stroke-width="3"/>
<defs>
<linearGradient id="paint0_linear_2_2" x1="7.50404" y1="1.44377" x2="7.50404" y2="31" gradientUnits="userSpaceOnUse">
<stop stop-color="#FEC831"/>
<stop offset="1" stop-color="#F57D35"/>
</linearGradient>
<linearGradient id="paint1_linear_2_2" x1="24.9642" y1="30.5562" x2="24.9642" y2="0.999986" gradientUnits="userSpaceOnUse">
<stop stop-color="#FEC831"/>
<stop offset="1" stop-color="#F57D35"/>
</linearGradient>
</defs>
</svg>
