<svg width="32" height="32" viewBox="0 0 32 32" fill="none" xmlns="http://www.w3.org/2000/svg">
<path d="M16 11.6666C13.6068 11.6666 11.6667 13.6067 11.6667 15.9999C11.6667 18.3931 13.6068 20.3332 16 20.3332C18.3932 20.3332 20.3333 18.3931 20.3333 15.9999C20.3333 13.6067 18.3932 11.6666 16 11.6666Z" fill="#37352F"/>
<path fill-rule="evenodd" clip-rule="evenodd" d="M9.02605 4.10852C13.6235 3.59469 18.3765 3.59469 22.974 4.10852C25.5052 4.39142 27.5468 6.38579 27.8439 8.92586C28.3936 13.6259 28.3936 18.3739 27.8439 23.0739C27.5468 25.614 25.5052 27.6084 22.974 27.8913C18.3765 28.4051 13.6235 28.4051 9.02605 27.8913C6.49485 27.6084 4.45326 25.614 4.15618 23.0739C3.60647 18.3739 3.60647 13.6259 4.15618 8.92586C4.45326 6.38579 6.49485 4.39142 9.02605 4.10852ZM22.6667 7.9999C21.9303 7.9999 21.3333 8.59685 21.3333 9.33323C21.3333 10.0696 21.9303 10.6666 22.6667 10.6666C23.403 10.6666 24 10.0696 24 9.33323C24 8.59685 23.403 7.9999 22.6667 7.9999ZM9.66667 15.9999C9.66667 12.5021 12.5022 9.66657 16 9.66657C19.4978 9.66657 22.3333 12.5021 22.3333 15.9999C22.3333 19.4977 19.4978 22.3332 16 22.3332C12.5022 22.3332 9.66667 19.4977 9.66667 15.9999Z" fill="#37352F"/>
</svg>
